# xmcd CD database file generated by Grip 3.2.0
# 
# Track frame offsets:
#       182
#       27455
#       58197
#       97692
#       140197
#       166700
#       196345
#       228240
#       278397
# 
# Disc length: 4448 seconds
# 
# Revision: 8
# Processed by: cddbd v1.5.2PL0 Copyright (c) Steve Scherf et al.
# Submitted via: Grip 3.2.0
# 
DISCID=70115e09
DTITLE=Rubén Blades y Son del Solar - Live!
DYEAR=1989
DGENRE=Latin
TTITLE0=Decisiones
TTITLE1=Cuentas Del Alma
TTITLE2=El Padre Antonio
TTITLE3=Pedro Navaja
TTITLE4=Todos Vuelven
TTITLE5=La Canción Del Final Del Mundo
TTITLE6=Ojos De Perro Azul
TTITLE7=Buscando América
TTITLE8=Muévete
EXTD=YEAR: 1989 ID3G: 86
EXTT0=
EXTT1=
EXTT2=
EXTT3=
EXTT4=
EXTT5=
EXTT6=
EXTT7=
EXTT8=
PLAYORDER=
